<svg width="252" height="145" viewBox="0 0 252 145" fill="none" xmlns="http://www.w3.org/2000/svg">
<path d="M212.638 45.0533C207.104 48.2395 104.475 108.61 104.642 108.945L164.342 84.6295C163.503 89.4927 161.827 94.0205 159.143 98.0452C154.113 105.256 142.877 117.498 122.25 117.498C98.7729 117.498 77.4755 98.3806 77.6432 73.897C77.6432 73.0585 193.353 21.2405 198.72 18.725C199.558 18.2219 200.397 17.7188 201.067 16.8804C206.601 10.8433 201.403 0.949255 193.353 2.12313C192.515 2.29082 191.509 2.62621 190.67 2.96161C183.962 6.65091 173.565 12.1849 167.193 15.5388C136.001 -9.1125 90.3881 -3.91393 65.4014 27.4452C55.3396 40.3578 49.8057 56.2889 49.8057 72.5554V72.7231C49.638 74.9031 49.8057 77.2509 49.9734 79.5986C35.5515 87.648 0.838479 106.765 0.838479 106.765C0.838479 106.765 50.8118 85.8034 50.9795 86.1388C51.9857 91.0019 53.495 95.8651 55.1719 100.561L0 135.944C0 135.944 40.4147 122.193 62.5506 113.809C62.7183 113.976 82.0033 145 122.25 145C162.33 145 194.863 112.467 194.863 72.3877C194.863 72.22 211.8 64.3383 219.682 60.649C220.688 60.1459 221.694 59.3074 222.365 58.3012C227.06 52.4319 222.7 43.3763 215.154 44.0471C214.315 44.3825 213.477 44.5502 212.638 45.0533V45.0533ZM138.349 31.6376L78.6494 63.8352C78.6494 62.6613 78.8171 61.4875 79.1525 60.3136C85.3572 38.01 107.661 24.0913 130.467 28.4514C133.318 29.1222 135.834 30.296 138.349 31.6376V31.6376Z" fill="#CA5EE5"/>
<path d="M212.638 45.0533C207.104 48.2395 104.475 108.61 104.642 108.945L164.342 84.6295C163.503 89.4927 161.827 94.0205 159.143 98.0452C154.113 105.256 142.877 117.498 122.25 117.498C98.7729 117.498 77.4755 98.3806 77.6432 73.897C77.6432 73.0585 193.353 21.2405 198.72 18.725C199.558 18.2219 200.397 17.7188 201.067 16.8804C206.601 10.8433 201.403 0.949255 193.353 2.12313C192.515 2.29082 191.509 2.62621 190.67 2.96161C183.962 6.65091 173.565 12.1849 167.193 15.5388C136.001 -9.1125 90.3881 -3.91393 65.4014 27.4452C55.3396 40.3578 49.8057 56.2889 49.8057 72.5554V72.7231C49.638 74.9031 49.8057 77.2509 49.9734 79.5986C35.5515 87.648 0.838479 106.765 0.838479 106.765C0.838479 106.765 50.8118 85.8034 50.9795 86.1388C51.9857 91.0019 53.495 95.8651 55.1719 100.561L0 135.944C0 135.944 40.4147 122.193 62.5506 113.809C62.7183 113.976 82.0033 145 122.25 145C162.33 145 194.863 112.467 194.863 72.3877C194.863 72.22 211.8 64.3383 219.682 60.649C220.688 60.1459 221.694 59.3074 222.365 58.3012C227.06 52.4319 222.7 43.3763 215.154 44.0471C214.315 44.3825 213.477 44.5502 212.638 45.0533V45.0533ZM138.349 31.6376L78.6494 63.8352C78.6494 62.6613 78.8171 61.4875 79.1525 60.3136C85.3572 38.01 107.661 24.0913 130.467 28.4514C133.318 29.1222 135.834 30.296 138.349 31.6376V31.6376Z" fill="url(#paint0_linear_3_45)"/>
<path d="M247.854 20.9051C254.898 16.2096 251.041 5.30935 242.656 5.47705C241.314 5.47705 239.973 5.81244 238.799 6.31553C224.042 14.5326 113.53 77.0832 113.53 77.0832C116.046 76.2447 232.93 27.2775 246.681 21.4082C247.184 21.4082 247.519 21.0728 247.854 20.9051V20.9051Z" fill="#CA5EE5"/>
<path d="M247.854 20.9051C254.898 16.2096 251.041 5.30935 242.656 5.47705C241.314 5.47705 239.973 5.81244 238.799 6.31553C224.042 14.5326 113.53 77.0832 113.53 77.0832C116.046 76.2447 232.93 27.2775 246.681 21.4082C247.184 21.4082 247.519 21.0728 247.854 20.9051V20.9051Z" fill="url(#paint1_linear_3_45)"/>
<defs>
<linearGradient id="paint0_linear_3_45" x1="152.429" y1="122.547" x2="52.5707" y2="29.1832" gradientUnits="userSpaceOnUse">
<stop stop-color="#5F2CF7"/>
<stop offset="1" stop-color="#CA5EE5"/>
</linearGradient>
<linearGradient id="paint1_linear_3_45" x1="207.301" y1="65.9948" x2="158.444" y2="9.09167" gradientUnits="userSpaceOnUse">
<stop stop-color="#5F2CF7"/>
<stop offset="1" stop-color="#CA5EE5"/>
</linearGradient>
</defs>
</svg>
