<svg width="175" height="45" viewBox="0 0 175 45" fill="none" xmlns="http://www.w3.org/2000/svg">
<path d="M65.936 13.9703C64.22 14.9583 32.396 33.6783 32.448 33.7823L50.96 26.2423C50.7 27.7503 50.18 29.1543 49.348 30.4023C47.788 32.6383 44.304 36.4343 37.908 36.4343C30.628 36.4343 24.024 30.5063 24.076 22.9143C24.076 22.6543 59.956 6.58635 61.62 5.80635C61.88 5.65035 62.14 5.49435 62.348 5.23435C64.064 3.36235 62.452 0.29435 59.956 0.65835C59.696 0.71035 59.384 0.81435 59.124 0.91835C57.044 2.06235 53.82 3.77835 51.844 4.81835C42.172 -2.82565 28.028 -1.21365 20.28 8.51035C17.16 12.5143 15.444 17.4543 15.444 22.4983V22.5503C15.392 23.2263 15.444 23.9543 15.496 24.6823C11.024 27.1783 0.26 33.1063 0.26 33.1063C0.26 33.1063 15.756 26.6063 15.808 26.7103C16.12 28.2183 16.588 29.7263 17.108 31.1823L0 42.1543C0 42.1543 12.532 37.8903 19.396 35.2903C19.448 35.3423 25.428 44.9623 37.908 44.9623C50.336 44.9623 60.424 34.8743 60.424 22.4463C60.424 22.3943 65.676 19.9503 68.12 18.8063C68.432 18.6503 68.744 18.3903 68.952 18.0783C70.408 16.2583 69.056 13.4503 66.716 13.6583C66.456 13.7623 66.196 13.8143 65.936 13.9703V13.9703ZM42.9 9.81035L24.388 19.7943C24.388 19.4303 24.44 19.0663 24.544 18.7023C26.468 11.7863 33.384 7.47035 40.456 8.82235C41.34 9.03035 42.12 9.39435 42.9 9.81035V9.81035Z" fill="#CA5EE5"/>
<path d="M65.936 13.9703C64.22 14.9583 32.396 33.6783 32.448 33.7823L50.96 26.2423C50.7 27.7503 50.18 29.1543 49.348 30.4023C47.788 32.6383 44.304 36.4343 37.908 36.4343C30.628 36.4343 24.024 30.5063 24.076 22.9143C24.076 22.6543 59.956 6.58635 61.62 5.80635C61.88 5.65035 62.14 5.49435 62.348 5.23435C64.064 3.36235 62.452 0.29435 59.956 0.65835C59.696 0.71035 59.384 0.81435 59.124 0.91835C57.044 2.06235 53.82 3.77835 51.844 4.81835C42.172 -2.82565 28.028 -1.21365 20.28 8.51035C17.16 12.5143 15.444 17.4543 15.444 22.4983V22.5503C15.392 23.2263 15.444 23.9543 15.496 24.6823C11.024 27.1783 0.26 33.1063 0.26 33.1063C0.26 33.1063 15.756 26.6063 15.808 26.7103C16.12 28.2183 16.588 29.7263 17.108 31.1823L0 42.1543C0 42.1543 12.532 37.8903 19.396 35.2903C19.448 35.3423 25.428 44.9623 37.908 44.9623C50.336 44.9623 60.424 34.8743 60.424 22.4463C60.424 22.3943 65.676 19.9503 68.12 18.8063C68.432 18.6503 68.744 18.3903 68.952 18.0783C70.408 16.2583 69.056 13.4503 66.716 13.6583C66.456 13.7623 66.196 13.8143 65.936 13.9703V13.9703ZM42.9 9.81035L24.388 19.7943C24.388 19.4303 24.44 19.0663 24.544 18.7023C26.468 11.7863 33.384 7.47035 40.456 8.82235C41.34 9.03035 42.12 9.39435 42.9 9.81035V9.81035Z" fill="url(#paint0_linear_3_49)"/>
<path d="M76.856 6.48235C79.04 5.02635 77.844 1.64635 75.244 1.69835C74.828 1.69835 74.412 1.80235 74.048 1.95835C69.472 4.50635 35.204 23.9024 35.204 23.9024C35.984 23.6424 72.228 8.45835 76.492 6.63835C76.648 6.63835 76.752 6.53435 76.856 6.48235V6.48235Z" fill="#CA5EE5"/>
<path d="M76.856 6.48235C79.04 5.02635 77.844 1.64635 75.244 1.69835C74.828 1.69835 74.412 1.80235 74.048 1.95835C69.472 4.50635 35.204 23.9024 35.204 23.9024C35.984 23.6424 72.228 8.45835 76.492 6.63835C76.648 6.63835 76.752 6.53435 76.856 6.48235V6.48235Z" fill="url(#paint1_linear_3_49)"/>
<path d="M87.614 29.216C86.618 29.216 85.694 29.054 84.842 28.73C84.002 28.406 83.27 27.95 82.646 27.362C82.034 26.774 81.554 26.084 81.206 25.292C80.87 24.5 80.702 23.636 80.702 22.7C80.702 21.764 80.87 20.9 81.206 20.108C81.554 19.316 82.04 18.626 82.664 18.038C83.288 17.45 84.02 16.994 84.86 16.67C85.7 16.346 86.612 16.184 87.596 16.184C88.592 16.184 89.504 16.346 90.332 16.67C91.172 16.994 91.898 17.45 92.51 18.038C93.134 18.626 93.62 19.316 93.968 20.108C94.316 20.888 94.49 21.752 94.49 22.7C94.49 23.636 94.316 24.506 93.968 25.31C93.62 26.102 93.134 26.792 92.51 27.38C91.898 27.956 91.172 28.406 90.332 28.73C89.504 29.054 88.598 29.216 87.614 29.216ZM87.596 26.732C88.16 26.732 88.676 26.636 89.144 26.444C89.624 26.252 90.044 25.976 90.404 25.616C90.764 25.256 91.04 24.83 91.232 24.338C91.436 23.846 91.538 23.3 91.538 22.7C91.538 22.1 91.436 21.554 91.232 21.062C91.04 20.57 90.764 20.144 90.404 19.784C90.056 19.424 89.642 19.148 89.162 18.956C88.682 18.764 88.16 18.668 87.596 18.668C87.032 18.668 86.51 18.764 86.03 18.956C85.562 19.148 85.148 19.424 84.788 19.784C84.428 20.144 84.146 20.57 83.942 21.062C83.75 21.554 83.654 22.1 83.654 22.7C83.654 23.288 83.75 23.834 83.942 24.338C84.146 24.83 84.422 25.256 84.77 25.616C85.13 25.976 85.55 26.252 86.03 26.444C86.51 26.636 87.032 26.732 87.596 26.732ZM102.37 19.172C103.138 19.172 103.822 19.328 104.422 19.64C105.034 19.94 105.514 20.408 105.862 21.044C106.21 21.668 106.384 22.472 106.384 23.456V29H103.576V23.888C103.576 23.108 103.402 22.532 103.054 22.16C102.718 21.788 102.238 21.602 101.614 21.602C101.17 21.602 100.768 21.698 100.408 21.89C100.06 22.07 99.7835 22.352 99.5795 22.736C99.3875 23.12 99.2915 23.612 99.2915 24.212V29H96.4835V19.316H99.1655V21.998L98.6615 21.188C99.0095 20.54 99.5075 20.042 100.156 19.694C100.804 19.346 101.542 19.172 102.37 19.172ZM113.805 29.144C112.701 29.144 111.729 28.928 110.889 28.496C110.061 28.064 109.419 27.476 108.963 26.732C108.507 25.976 108.279 25.118 108.279 24.158C108.279 23.186 108.501 22.328 108.945 21.584C109.401 20.828 110.019 20.24 110.799 19.82C111.579 19.388 112.461 19.172 113.445 19.172C114.393 19.172 115.245 19.376 116.001 19.784C116.769 20.18 117.375 20.756 117.819 21.512C118.263 22.256 118.485 23.15 118.485 24.194C118.485 24.302 118.479 24.428 118.467 24.572C118.455 24.704 118.443 24.83 118.431 24.95H110.565V23.312H116.955L115.875 23.798C115.875 23.294 115.773 22.856 115.569 22.484C115.365 22.112 115.083 21.824 114.723 21.62C114.363 21.404 113.943 21.296 113.463 21.296C112.983 21.296 112.557 21.404 112.185 21.62C111.825 21.824 111.543 22.118 111.339 22.502C111.135 22.874 111.033 23.318 111.033 23.834V24.266C111.033 24.794 111.147 25.262 111.375 25.67C111.615 26.066 111.945 26.372 112.365 26.588C112.797 26.792 113.301 26.894 113.877 26.894C114.393 26.894 114.843 26.816 115.227 26.66C115.623 26.504 115.983 26.27 116.307 25.958L117.801 27.578C117.357 28.082 116.799 28.472 116.127 28.748C115.455 29.012 114.681 29.144 113.805 29.144ZM126.637 29.216C125.641 29.216 124.723 29.06 123.883 28.748C123.055 28.424 122.329 27.968 121.705 27.38C121.093 26.792 120.613 26.102 120.265 25.31C119.929 24.518 119.761 23.648 119.761 22.7C119.761 21.752 119.929 20.882 120.265 20.09C120.613 19.298 121.099 18.608 121.723 18.02C122.347 17.432 123.079 16.982 123.919 16.67C124.759 16.346 125.683 16.184 126.691 16.184C127.807 16.184 128.809 16.37 129.697 16.742C130.597 17.114 131.353 17.654 131.965 18.362L130.093 20.09C129.637 19.61 129.139 19.256 128.599 19.028C128.059 18.788 127.471 18.668 126.835 18.668C126.223 18.668 125.665 18.764 125.161 18.956C124.657 19.148 124.219 19.424 123.847 19.784C123.487 20.144 123.205 20.57 123.001 21.062C122.809 21.554 122.713 22.1 122.713 22.7C122.713 23.288 122.809 23.828 123.001 24.32C123.205 24.812 123.487 25.244 123.847 25.616C124.219 25.976 124.651 26.252 125.143 26.444C125.647 26.636 126.199 26.732 126.799 26.732C127.375 26.732 127.933 26.642 128.473 26.462C129.025 26.27 129.559 25.952 130.075 25.508L131.731 27.614C131.047 28.13 130.249 28.526 129.337 28.802C128.437 29.078 127.537 29.216 126.637 29.216ZM129.067 27.236V22.502H131.731V27.614L129.067 27.236ZM140.181 29V27.11L140.001 26.696V23.312C140.001 22.712 139.815 22.244 139.443 21.908C139.083 21.572 138.525 21.404 137.769 21.404C137.253 21.404 136.743 21.488 136.239 21.656C135.747 21.812 135.327 22.028 134.979 22.304L133.971 20.342C134.499 19.97 135.135 19.682 135.879 19.478C136.623 19.274 137.379 19.172 138.147 19.172C139.623 19.172 140.769 19.52 141.585 20.216C142.401 20.912 142.809 21.998 142.809 23.474V29H140.181ZM137.229 29.144C136.473 29.144 135.825 29.018 135.285 28.766C134.745 28.502 134.331 28.148 134.043 27.704C133.755 27.26 133.611 26.762 133.611 26.21C133.611 25.634 133.749 25.13 134.025 24.698C134.313 24.266 134.763 23.93 135.375 23.69C135.987 23.438 136.785 23.312 137.769 23.312H140.343V24.95H138.075C137.415 24.95 136.959 25.058 136.707 25.274C136.467 25.49 136.347 25.76 136.347 26.084C136.347 26.444 136.485 26.732 136.761 26.948C137.049 27.152 137.439 27.254 137.931 27.254C138.399 27.254 138.819 27.146 139.191 26.93C139.563 26.702 139.833 26.372 140.001 25.94L140.433 27.236C140.229 27.86 139.857 28.334 139.317 28.658C138.777 28.982 138.081 29.144 137.229 29.144ZM157.753 19.172C158.521 19.172 159.199 19.328 159.787 19.64C160.387 19.94 160.855 20.408 161.191 21.044C161.539 21.668 161.713 22.472 161.713 23.456V29H158.905V23.888C158.905 23.108 158.743 22.532 158.419 22.16C158.095 21.788 157.639 21.602 157.051 21.602C156.643 21.602 156.277 21.698 155.953 21.89C155.629 22.07 155.377 22.346 155.197 22.718C155.017 23.09 154.927 23.564 154.927 24.14V29H152.119V23.888C152.119 23.108 151.957 22.532 151.633 22.16C151.321 21.788 150.871 21.602 150.283 21.602C149.875 21.602 149.509 21.698 149.185 21.89C148.861 22.07 148.609 22.346 148.429 22.718C148.249 23.09 148.159 23.564 148.159 24.14V29H145.351V19.316H148.033V21.962L147.529 21.188C147.865 20.528 148.339 20.03 148.951 19.694C149.575 19.346 150.283 19.172 151.075 19.172C151.963 19.172 152.737 19.4 153.397 19.856C154.069 20.3 154.513 20.984 154.729 21.908L153.739 21.638C154.063 20.882 154.579 20.282 155.287 19.838C156.007 19.394 156.829 19.172 157.753 19.172ZM169.106 29.144C168.002 29.144 167.03 28.928 166.19 28.496C165.362 28.064 164.72 27.476 164.264 26.732C163.808 25.976 163.58 25.118 163.58 24.158C163.58 23.186 163.802 22.328 164.246 21.584C164.702 20.828 165.32 20.24 166.1 19.82C166.88 19.388 167.762 19.172 168.746 19.172C169.694 19.172 170.546 19.376 171.302 19.784C172.07 20.18 172.676 20.756 173.12 21.512C173.564 22.256 173.786 23.15 173.786 24.194C173.786 24.302 173.78 24.428 173.768 24.572C173.756 24.704 173.744 24.83 173.732 24.95H165.866V23.312H172.256L171.176 23.798C171.176 23.294 171.074 22.856 170.87 22.484C170.666 22.112 170.384 21.824 170.024 21.62C169.664 21.404 169.244 21.296 168.764 21.296C168.284 21.296 167.858 21.404 167.486 21.62C167.126 21.824 166.844 22.118 166.64 22.502C166.436 22.874 166.334 23.318 166.334 23.834V24.266C166.334 24.794 166.448 25.262 166.676 25.67C166.916 26.066 167.246 26.372 167.666 26.588C168.098 26.792 168.602 26.894 169.178 26.894C169.694 26.894 170.144 26.816 170.528 26.66C170.924 26.504 171.284 26.27 171.608 25.958L173.102 27.578C172.658 28.082 172.1 28.472 171.428 28.748C170.756 29.012 169.982 29.144 169.106 29.144Z" fill="white"/>
<defs>
<linearGradient id="paint0_linear_3_49" x1="47.266" y1="38" x2="16.3014" y2="9.04928" gradientUnits="userSpaceOnUse">
<stop stop-color="#5F2CF7"/>
<stop offset="1" stop-color="#CA5EE5"/>
</linearGradient>
<linearGradient id="paint1_linear_3_49" x1="64.2811" y1="20.464" x2="49.1311" y2="2.81919" gradientUnits="userSpaceOnUse">
<stop stop-color="#5F2CF7"/>
<stop offset="1" stop-color="#CA5EE5"/>
</linearGradient>
</defs>
</svg>
