<svg width="430" height="430" viewBox="0 0 430 430" fill="none" xmlns="http://www.w3.org/2000/svg">
<path d="M214.65 429.3C333.198 429.3 429.3 333.198 429.3 214.65C429.3 96.1021 333.198 0 214.65 0C96.1021 0 0 96.1021 0 214.65C0 333.198 96.1021 429.3 214.65 429.3Z" fill="#F3BA2C"/>
<path d="M306.749 272.374L306.719 272.388L214.65 364.473L122.596 272.418L122.551 272.374L156.451 238.563L214.65 296.747L272.864 238.533L306.749 272.374Z" fill="white"/>
<path d="M306.719 156.912L272.864 190.767L214.65 132.553L156.451 190.737L122.596 156.882L214.65 64.8275L306.719 156.912Z" fill="white"/>
<path d="M330.612 180.811L296.753 214.671L330.612 248.53L364.471 214.671L330.612 180.811Z" fill="white"/>
<path d="M98.685 180.793L64.8255 214.653L98.685 248.512L132.544 214.653L98.685 180.793Z" fill="white"/>
<path d="M248.996 214.635H249.011L214.65 180.275L189.266 205.659L186.353 208.572L180.334 214.591L180.289 214.635L180.334 214.68L214.665 249.011L249.026 214.65L249.04 214.635H248.996Z" fill="white"/>
</svg>
