<svg width="105" height="105" viewBox="0 0 105 105" fill="none" xmlns="http://www.w3.org/2000/svg">
<path d="M52.5 105C81.4949 105 105 81.4949 105 52.5C105 23.5051 81.4949 0 52.5 0C23.5051 0 0 23.5051 0 52.5C0 81.4949 23.5051 105 52.5 105Z" fill="#627EEA"/>
<path d="M54.1361 13.1178V42.2239L78.7357 53.2176L54.1361 13.1178Z" fill="white" fill-opacity="0.602"/>
<path d="M54.1361 13.1178L29.5366 53.2176L54.1361 42.2239V13.1178Z" fill="white"/>
<path d="M54.1361 72.0763V91.8535L78.75 57.7959L54.1361 72.0763Z" fill="white" fill-opacity="0.602"/>
<path d="M54.1361 91.8535V72.0763L29.5366 57.7959L54.1361 91.8535Z" fill="white"/>
<path d="M54.1361 67.498L78.7357 53.2176L54.1361 42.2239V67.498Z" fill="white" fill-opacity="0.2"/>
<path d="M29.5366 53.2176L54.1361 67.498V42.2239L29.5366 53.2176Z" fill="white" fill-opacity="0.602"/>
</svg>
