<svg width="1547" height="237" viewBox="0 0 1547 237" fill="none" xmlns="http://www.w3.org/2000/svg">
<path d="M559.022 129.775L537.79 201.238H515.692L486.14 96.5986H510.405L527.998 172.361H528.604L549.49 96.5986H569.248L590.134 172.361H590.74L608.419 96.5986H632.685L603.046 201.238H580.948L559.716 129.775H559.022ZM664.923 187.124C674.715 187.124 682.862 181.122 682.862 172.685V167.007L665.356 167.981C656.95 168.549 652.097 172.118 652.097 177.634C652.097 183.555 657.21 187.124 664.923 187.124ZM657.47 202.455C641.697 202.455 629.651 192.883 629.651 178.931C629.651 164.817 641.264 156.624 661.976 155.408L682.862 154.272V149.162C682.862 141.942 677.402 137.724 668.909 137.724C660.503 137.724 655.13 141.618 654.003 147.377H633.291C634.158 132.29 647.85 121.907 669.862 121.907C691.181 121.907 705.047 132.209 705.047 147.864V201.319H683.208V189.395H682.775C678.095 197.588 667.869 202.455 657.47 202.455ZM720.213 96.5986H742.831V201.238H720.213V96.5986ZM758.604 96.5986H781.222V201.238H758.604V96.5986ZM833.739 137.481C823.86 137.481 816.667 144.538 815.887 154.191H851.158C850.725 144.295 843.792 137.481 833.739 137.481ZM851.505 177.471H872.304C869.791 192.721 854.971 202.942 834.433 202.942C808.868 202.942 793.528 187.611 793.528 162.789C793.528 137.968 809.041 121.907 833.566 121.907C857.745 121.907 872.997 137.238 872.997 160.843V167.332H815.8V168.63C815.8 179.743 823.34 187.367 834.866 187.367C843.012 187.205 849.338 183.393 851.505 177.471ZM890.589 105.602H913.208V123.529H928.547V139.509H913.208V176.66C913.208 182.582 916.328 185.421 923.001 185.421C924.994 185.421 927.074 185.258 928.46 185.096V200.671C926.121 201.157 922.221 201.563 917.714 201.563C898.216 201.563 890.589 195.479 890.589 180.31V139.509H878.89V123.529H890.589V105.602ZM992.243 203.023C959.745 203.023 939.38 182.663 939.38 148.837C939.38 115.093 959.919 94.7329 992.243 94.7329C1019.11 94.7329 1039.56 110.713 1041.38 134.074H1018.59C1016.42 121.258 1005.85 112.822 992.243 112.822C974.564 112.822 963.212 126.693 963.212 148.675C963.212 170.982 974.478 184.772 992.33 184.772C1006.2 184.772 1016.16 177.147 1018.68 164.736H1041.47C1038.78 188.26 1019.71 203.023 992.243 203.023ZM1091.99 202.861C1066.86 202.861 1050.83 187.773 1050.83 162.303C1050.83 137.157 1067.12 121.826 1091.99 121.826C1116.86 121.826 1133.15 137.076 1133.15 162.303C1133.15 187.854 1117.12 202.861 1091.99 202.861ZM1091.99 186.719C1103.08 186.719 1110.1 177.958 1110.1 162.384C1110.1 146.972 1103 138.049 1091.99 138.049C1080.98 138.049 1073.79 146.972 1073.79 162.384C1073.79 177.958 1080.9 186.719 1091.99 186.719ZM1144.77 201.238V123.529H1166.61V137.4H1167.04C1171.46 127.747 1180.21 122.069 1193.04 122.069C1211.5 122.069 1221.81 132.939 1221.81 151.109V201.238H1199.19V155.57C1199.19 145.43 1194.08 139.59 1183.94 139.59C1173.8 139.59 1167.39 146.566 1167.39 156.624V201.238H1144.77V201.238ZM1236.11 201.238V123.529H1257.95V137.4H1258.38C1262.8 127.747 1271.55 122.069 1284.29 122.069C1302.75 122.069 1313.06 132.939 1313.06 151.109V201.238H1290.45V155.57C1290.45 145.43 1285.33 139.59 1275.19 139.59C1265.05 139.59 1258.64 146.566 1258.64 156.624V201.238H1236.11V201.238ZM1364.8 137.481C1354.92 137.481 1347.73 144.538 1346.95 154.191H1382.22C1381.79 144.295 1374.85 137.481 1364.8 137.481ZM1382.48 177.471H1403.28C1400.77 192.721 1385.95 202.942 1365.41 202.942C1339.84 202.942 1324.5 187.611 1324.5 162.789C1324.5 137.968 1340.02 121.907 1364.54 121.907C1388.72 121.907 1403.97 137.238 1403.97 160.843V167.332H1346.78V168.63C1346.78 179.743 1354.32 187.367 1365.84 187.367C1374.07 187.205 1380.4 183.393 1382.48 177.471ZM1490.98 152.406H1470.01C1468.71 144.214 1462.9 138.454 1453.63 138.454C1442.45 138.454 1435.52 147.296 1435.52 162.303C1435.52 177.634 1442.45 186.313 1453.72 186.313C1462.82 186.313 1468.62 181.203 1470.09 172.767H1491.15C1490.03 191.099 1475.38 202.942 1453.54 202.942C1428.5 202.942 1412.64 187.692 1412.64 162.384C1412.64 137.481 1428.5 121.907 1453.37 121.907C1475.73 121.826 1490.03 134.804 1490.98 152.406ZM1508.05 105.602H1530.67V123.529H1546.01V139.509H1530.67V176.66C1530.67 182.582 1533.79 185.421 1540.46 185.421C1542.46 185.421 1544.54 185.258 1545.92 185.096V200.671C1543.58 201.157 1539.77 201.563 1535.18 201.563C1515.68 201.563 1508.05 195.479 1508.05 180.31V139.509H1496.35V123.529H1508.05V105.602Z" fill="white"/>
<path d="M85.0254 46.7503C152.015 -14.6546 260.602 -14.6546 327.678 46.7503L335.737 54.1319C339.117 57.2143 339.117 62.1624 335.737 65.2448L308.179 90.553C306.532 92.0942 303.759 92.0942 302.113 90.553L291.02 80.4135C244.309 37.5842 168.48 37.5842 121.77 80.4135L109.897 91.283C108.251 92.8242 105.477 92.8242 103.831 91.283L76.1859 65.9748C72.8061 62.8924 72.8061 57.9443 76.1859 54.8619L85.0254 46.7503ZM384.701 98.9891L409.226 121.458C412.606 124.541 412.606 129.489 409.226 132.571L298.559 234.047C295.18 237.13 289.807 237.13 286.427 234.047L207.825 162.016C206.958 161.286 205.658 161.286 204.792 162.016L126.276 234.047C122.896 237.13 117.523 237.13 114.144 234.047L3.3902 132.652C0.0103968 129.57 0.0103968 124.622 3.3902 121.539L27.9154 99.0702C31.2952 95.9878 36.6682 95.9878 40.048 99.0702L118.65 171.101C119.517 171.831 120.817 171.831 121.683 171.101L200.199 99.0702C203.578 95.9878 208.951 95.9878 212.331 99.0702L290.933 171.101C291.8 171.831 293.1 171.831 293.966 171.101L372.568 99.0702C375.861 95.9067 381.321 95.9067 384.701 98.9891Z" fill="#3A99FB"/>
</svg>
