<svg width="1547" height="237" viewBox="0 0 1547 237" fill="none" xmlns="http://www.w3.org/2000/svg">
<path d="M559.022 91.7751L537.79 163.238H515.692L486.14 58.5986H510.405L527.998 134.361H528.604L549.49 58.5986H569.248L590.134 134.361H590.74L608.419 58.5986H632.685L603.046 163.238H580.948L559.716 91.7751H559.022ZM664.923 149.124C674.715 149.124 682.862 143.122 682.862 134.685V129.007L665.356 129.981C656.95 130.549 652.097 134.118 652.097 139.634C652.097 145.555 657.21 149.124 664.923 149.124ZM657.47 164.455C641.697 164.455 629.651 154.883 629.651 140.931C629.651 126.817 641.264 118.624 661.976 117.408L682.862 116.272V111.162C682.862 103.942 677.402 99.7244 668.909 99.7244C660.503 99.7244 655.13 103.618 654.003 109.377H633.291C634.158 94.2897 647.85 83.9068 669.862 83.9068C691.181 83.9068 705.047 94.2085 705.047 109.864V163.319H683.208V151.395H682.775C678.095 159.588 667.869 164.455 657.47 164.455ZM720.213 58.5986H742.831V163.238H720.213V58.5986ZM758.604 58.5986H781.222V163.238H758.604V58.5986ZM833.739 99.4811C823.86 99.4811 816.667 106.538 815.887 116.191H851.158C850.725 106.295 843.792 99.4811 833.739 99.4811ZM851.505 139.471H872.304C869.791 154.721 854.971 164.942 834.433 164.942C808.868 164.942 793.528 149.611 793.528 124.789C793.528 99.9678 809.041 83.9068 833.566 83.9068C857.745 83.9068 872.997 99.2377 872.997 122.843V129.332H815.8V130.63C815.8 141.743 823.34 149.367 834.866 149.367C843.012 149.205 849.338 145.393 851.505 139.471ZM890.589 67.6025H913.208V85.5291H928.547V101.509H913.208V138.66C913.208 144.582 916.328 147.421 923.001 147.421C924.994 147.421 927.074 147.258 928.46 147.096V162.671C926.121 163.157 922.221 163.563 917.714 163.563C898.216 163.563 890.589 157.479 890.589 142.31V101.509H878.89V85.5291H890.589V67.6025ZM992.243 165.023C959.745 165.023 939.38 144.663 939.38 110.837C939.38 77.093 959.919 56.7329 992.243 56.7329C1019.11 56.7329 1039.56 72.7128 1041.38 96.0742H1018.59C1016.42 83.2579 1005.85 74.8218 992.243 74.8218C974.564 74.8218 963.212 88.6926 963.212 110.675C963.212 132.982 974.478 146.772 992.33 146.772C1006.2 146.772 1016.16 139.147 1018.68 126.736H1041.47C1038.78 150.26 1019.71 165.023 992.243 165.023ZM1091.99 164.861C1066.86 164.861 1050.83 149.773 1050.83 124.303C1050.83 99.1566 1067.12 83.8257 1091.99 83.8257C1116.86 83.8257 1133.15 99.0755 1133.15 124.303C1133.15 149.854 1117.12 164.861 1091.99 164.861ZM1091.99 148.719C1103.08 148.719 1110.1 139.958 1110.1 124.384C1110.1 108.972 1103 100.049 1091.99 100.049C1080.98 100.049 1073.79 108.972 1073.79 124.384C1073.79 139.958 1080.9 148.719 1091.99 148.719ZM1144.77 163.238V85.5291H1166.61V99.4H1167.04C1171.46 89.7472 1180.21 84.069 1193.04 84.069C1211.5 84.069 1221.81 94.9386 1221.81 113.109V163.238H1199.19V117.57C1199.19 107.43 1194.08 101.59 1183.94 101.59C1173.8 101.59 1167.39 108.566 1167.39 118.624V163.238H1144.77V163.238ZM1236.11 163.238V85.5291H1257.95V99.4H1258.38C1262.8 89.7472 1271.55 84.069 1284.29 84.069C1302.75 84.069 1313.06 94.9386 1313.06 113.109V163.238H1290.45V117.57C1290.45 107.43 1285.33 101.59 1275.19 101.59C1265.05 101.59 1258.64 108.566 1258.64 118.624V163.238H1236.11V163.238ZM1364.8 99.4811C1354.92 99.4811 1347.73 106.538 1346.95 116.191H1382.22C1381.79 106.295 1374.85 99.4811 1364.8 99.4811ZM1382.48 139.471H1403.28C1400.77 154.721 1385.95 164.942 1365.41 164.942C1339.84 164.942 1324.5 149.611 1324.5 124.789C1324.5 99.9678 1340.02 83.9068 1364.54 83.9068C1388.72 83.9068 1403.97 99.2377 1403.97 122.843V129.332H1346.78V130.63C1346.78 141.743 1354.32 149.367 1365.84 149.367C1374.07 149.205 1380.4 145.393 1382.48 139.471ZM1490.98 114.406H1470.01C1468.71 106.214 1462.9 100.454 1453.63 100.454C1442.45 100.454 1435.52 109.296 1435.52 124.303C1435.52 139.634 1442.45 148.313 1453.72 148.313C1462.82 148.313 1468.62 143.203 1470.09 134.767H1491.15C1490.03 153.099 1475.38 164.942 1453.54 164.942C1428.5 164.942 1412.64 149.692 1412.64 124.384C1412.64 99.4811 1428.5 83.9068 1453.37 83.9068C1475.73 83.8257 1490.03 96.8042 1490.98 114.406ZM1508.05 67.6025H1530.67V85.5291H1546.01V101.509H1530.67V138.66C1530.67 144.582 1533.79 147.421 1540.46 147.421C1542.46 147.421 1544.54 147.258 1545.92 147.096V162.671C1543.58 163.157 1539.77 163.563 1535.18 163.563C1515.68 163.563 1508.05 157.479 1508.05 142.31V101.509H1496.35V85.5291H1508.05V67.6025Z" fill="white"/>
<path d="M85.0254 46.7503C152.015 -14.6546 260.602 -14.6546 327.678 46.7503L335.737 54.1319C339.117 57.2143 339.117 62.1624 335.737 65.2448L308.179 90.553C306.532 92.0942 303.759 92.0942 302.113 90.553L291.02 80.4135C244.309 37.5842 168.48 37.5842 121.77 80.4135L109.897 91.283C108.251 92.8242 105.477 92.8242 103.831 91.283L76.1859 65.9748C72.8061 62.8924 72.8061 57.9443 76.1859 54.8619L85.0254 46.7503ZM384.701 98.9891L409.226 121.458C412.606 124.541 412.606 129.489 409.226 132.571L298.559 234.047C295.18 237.13 289.807 237.13 286.427 234.047L207.825 162.016C206.958 161.286 205.658 161.286 204.792 162.016L126.276 234.047C122.896 237.13 117.523 237.13 114.144 234.047L3.3902 132.652C0.0103968 129.57 0.0103968 124.622 3.3902 121.539L27.9154 99.0702C31.2952 95.9878 36.6682 95.9878 40.048 99.0702L118.65 171.101C119.517 171.831 120.817 171.831 121.683 171.101L200.199 99.0702C203.578 95.9878 208.951 95.9878 212.331 99.0702L290.933 171.101C291.8 171.831 293.1 171.831 293.966 171.101L372.568 99.0702C375.861 95.9067 381.321 95.9067 384.701 98.9891Z" fill="#3A99FB"/>
</svg>
